<svg width="10" height="10" viewBox="0 0 10 10" fill="none" xmlns="http://www.w3.org/2000/svg">
<path d="M1.20999 9.28948C1.14062 9.28936 1.07204 9.27481 1.0086 9.24675C0.945157 9.21869 0.88825 9.17773 0.841495 9.12648C0.793894 9.07567 0.757572 9.01537 0.734909 8.94954C0.712247 8.88371 0.703756 8.81383 0.709995 8.74448L0.832495 7.39748L6.49149 1.74048L8.25999 3.50848L2.60249 9.16498L1.25549 9.28748C1.24037 9.28888 1.22518 9.28955 1.20999 9.28948ZM8.61299 3.15498L6.84499 1.38698L7.9055 0.326483C7.95193 0.279995 8.00708 0.243116 8.06777 0.217954C8.12847 0.192791 8.19354 0.17984 8.25924 0.17984C8.32495 0.17984 8.39002 0.192791 8.45071 0.217954C8.51141 0.243116 8.56656 0.279995 8.61299 0.326483L9.6735 1.38698C9.71998 1.43342 9.75686 1.48856 9.78203 1.54926C9.80719 1.60996 9.82014 1.67503 9.82014 1.74073C9.82014 1.80644 9.80719 1.8715 9.78203 1.9322C9.75686 1.9929 9.71998 2.04805 9.6735 2.09448L8.61349 3.15448L8.61299 3.15498Z" fill="#959595"/>
</svg>
