<svg width="18" height="18" viewBox="0 0 18 18" fill="none" xmlns="http://www.w3.org/2000/svg">
<g clip-path="url(#clip0)">
<path d="M0 6.75077L8.667 12.2666C8.766 12.3398 8.883 12.3758 9 12.3758C9.117 12.3758 9.234 12.3398 9.333 12.2666L18 6.75077L9.3375 0.113272C9.13725 -0.0363534 8.86275 -0.0363534 8.6625 0.113272L0 6.75077Z" fill="#64B5F6"/>
<path d="M14.625 0H3.375C2.75512 0 2.25 0.505125 2.25 1.125V13.5C2.25 13.8105 2.502 14.0625 2.8125 14.0625H15.1875C15.498 14.0625 15.75 13.8105 15.75 13.5V1.125C15.75 0.505125 15.246 0 14.625 0Z" fill="#ECEFF1"/>
<path d="M5.0625 3.375H12.9375C13.248 3.375 13.5 3.123 13.5 2.8125C13.5 2.502 13.248 2.25 12.9375 2.25H5.0625C4.752 2.25 4.5 2.502 4.5 2.8125C4.5 3.123 4.752 3.375 5.0625 3.375Z" fill="#90A4AE"/>
<path d="M12.9375 4.5H5.0625C4.752 4.5 4.5 4.752 4.5 5.0625C4.5 5.373 4.752 5.625 5.0625 5.625H12.9375C13.248 5.625 13.5 5.373 13.5 5.0625C13.5 4.752 13.248 4.5 12.9375 4.5Z" fill="#90A4AE"/>
<path d="M9.5625 6.75H5.0625C4.752 6.75 4.5 7.002 4.5 7.3125C4.5 7.623 4.752 7.875 5.0625 7.875H9.5625C9.873 7.875 10.125 7.623 10.125 7.3125C10.125 7.002 9.873 6.75 9.5625 6.75Z" fill="#90A4AE"/>
<path d="M9.333 12.2659C9.234 12.339 9.117 12.375 9 12.375C8.883 12.375 8.766 12.339 8.667 12.2659L0 6.75V16.875C0 17.496 0.504 18 1.125 18H16.875C17.496 18 18 17.496 18 16.875V6.75L9.333 12.2659Z" fill="#1E88E5"/>
<path d="M16.875 18H1.125C0.493875 18 0 17.5061 0 16.875C0 16.6961 0.0855 16.5274 0.2295 16.4216L8.667 10.7966C8.766 10.7235 8.883 10.6875 9 10.6875C9.117 10.6875 9.234 10.7235 9.333 10.7966L17.7705 16.4216C17.9145 16.5274 18 16.6961 18 16.875C18 17.5061 17.5061 18 16.875 18Z" fill="#2196F3"/>
</g>
<defs>
<clipPath id="clip0">
<rect width="18" height="18" fill="white"/>
</clipPath>
</defs>
</svg>
