<svg width="50" height="54" viewBox="0 0 50 54" fill="none" xmlns="http://www.w3.org/2000/svg">
<path d="M46.3093 23.9394H27.5204V3.69091C27.5204 1.97026 26.2263 0.575562 24.6297 0.575562C23.0331 0.575562 21.7389 1.97026 21.7389 3.69091V23.9394H2.95009C1.35349 23.9394 0.0593262 25.3341 0.0593262 27.0548C0.0593262 28.7754 1.35349 30.1701 2.95009 30.1701H21.7389V50.4186C21.7389 52.1393 23.0331 53.534 24.6297 53.534C26.2263 53.534 27.5204 52.1393 27.5204 50.4186V30.1701H46.3093C47.9059 30.1701 49.2 28.7754 49.2 27.0548C49.2 25.3341 47.9059 23.9394 46.3093 23.9394Z" fill="#D0D0D0"/>
<path d="M24.6299 38.1585C31.0981 38.1585 36.7277 31.6912 38.0734 23.3166C36.5328 16.8642 31.0981 12.0962 24.6299 12.0962C18.1618 12.0962 12.7267 16.8642 11.1865 23.3166C11.1865 32.0896 18.1618 38.1585 24.6299 38.1585Z" fill="#EEF3F9"/>
<path d="M24.63 34.537C18.1618 34.537 12.7268 29.769 11.1866 23.3166C10.9013 24.5117 10.7497 25.7644 10.7497 27.0549C10.7497 35.3164 16.964 42.0139 24.63 42.0139C32.296 42.0139 38.5106 35.3164 38.5106 27.0549C38.5106 25.764 38.359 24.5113 38.0738 23.3166C36.5332 29.7686 31.0982 34.537 24.63 34.537Z" fill="#DAE3ED"/>
</svg>
