<svg width="24" height="24" viewBox="0 0 24 24" fill="none" xmlns="http://www.w3.org/2000/svg">
<path d="M8.31899 11.4576L7.59937 10.249L15.6496 5.41215L16.3692 6.62063L8.31899 11.4576Z" fill="#800000"/>
<path d="M15.5754 18.824L7.81836 14.8599L8.45281 13.6046L16.2099 17.5689L15.5754 18.824Z" fill="#800000"/>
<path d="M19.0312 0C16.7109 0 14.8125 1.89839 14.8125 4.21875C14.8125 6.53902 16.7109 8.4375 19.0312 8.4375C21.3516 8.4375 23.25 6.53902 23.25 4.21875C23.25 1.89839 21.3516 0 19.0312 0Z" fill="#A42C60"/>
<path d="M19.0312 15.5625C16.7109 15.5625 14.8125 17.4609 14.8125 19.7812C14.8125 22.1015 16.7109 24 19.0312 24C21.3516 24 23.25 22.1015 23.25 19.7812C23.25 17.4609 21.3516 15.5625 19.0312 15.5625Z" fill="#A42C60"/>
<path d="M4.96875 8.48438C2.64839 8.48438 0.75 10.3828 0.75 12.7031C0.75 15.0234 2.64839 16.9219 4.96875 16.9219C7.28911 16.9219 9.1875 15.0234 9.1875 12.7031C9.1875 10.3828 7.28911 8.48438 4.96875 8.48438Z" fill="#A42C60"/>
<path d="M23.25 19.7812C23.25 22.1015 21.3516 24 19.0312 24V15.5625C21.3516 15.5625 23.25 17.4609 23.25 19.7812Z" fill="#800000"/>
<path d="M19.0312 8.4375V0C21.3516 0 23.25 1.89839 23.25 4.21875C23.25 6.53902 21.3516 8.4375 19.0312 8.4375Z" fill="#800000"/>
<path d="M9.1875 12.7031C9.1875 15.0234 7.28911 16.9219 4.96875 16.9219V8.48438C7.28911 8.48438 9.1875 10.3828 9.1875 12.7031Z" fill="#800000"/>
</svg>
