<svg width="260" height="31" viewBox="0 0 260 31" fill="none" xmlns="http://www.w3.org/2000/svg">
<path d="M216.091 17.8536L237.863 23.5838L259.511 17.8536V6.02375L237.126 0.293488L210.721 6.02375L216.091 17.8536Z" fill="#D0D0D0"/>
<path d="M0.932251 17.8536L22.7699 23.5839L44.3529 17.8536L49.7221 6.02377L24.1931 0.293503L0.932251 6.02377V17.8536Z" fill="#D0D0D0"/>
<path d="M0.932251 17.8532V20.351C0.932251 25.796 5.02766 30.2096 10.0802 30.2096H33.0356C36.5296 30.2096 39.7181 28.0652 41.253 24.6831L44.3529 17.8532H0.932251Z" fill="#E0E0E0"/>
<path d="M216.09 17.8532L219.19 24.6831C220.725 28.0652 223.913 30.2096 227.407 30.2096H250.362C255.415 30.2096 259.51 25.796 259.51 20.351V17.8532H216.09Z" fill="#E0E0E0"/>
</svg>
